<svg width="82" height="30" viewBox="0 0 82 30" fill="none" xmlns="http://www.w3.org/2000/svg">
<path d="M19.2231 21C18.2293 21 17.4577 20.8038 16.9085 20.4115C16.3593 20.0062 15.9997 19.3523 15.8297 18.45L12.8677 18.9404C12.8808 19.0188 12.8873 19.0973 12.8873 19.1758C12.8873 19.2411 12.8873 19.3065 12.8873 19.3719C12.8873 21.5427 12.3904 23.1381 11.3966 24.1581C10.4158 25.1912 8.87925 25.7077 6.78694 25.7077C4.77309 25.7077 3.24962 25.2369 2.21654 24.2954C1.19654 23.3669 0.68654 22.0462 0.68654 20.3331C0.68654 19.7446 0.765002 19.0842 0.921925 18.3519C1.09193 17.6065 1.32077 16.8873 1.60847 16.1942L3.49155 16.7435C3.23001 17.3058 3.02078 17.8746 2.86385 18.45C2.72001 19.0254 2.64808 19.5223 2.64808 19.9408C2.64808 20.7646 2.94232 21.3988 3.53078 21.8435C4.11924 22.3012 4.94309 22.53 6.00232 22.53H7.57156C8.6831 22.53 9.50041 22.275 10.0235 21.765C10.5466 21.255 10.8081 20.4573 10.8081 19.3719C10.8081 19.0711 10.7754 18.6854 10.71 18.2146C10.6446 17.7438 10.5662 17.2992 10.4746 16.8808L10.0823 15.0565L12.2008 14.6446L12.495 16.0961L15.712 15.5665V13.8796H17.8697V16.6061C17.8697 17.2077 17.9939 17.6 18.2424 17.7831C18.4908 17.9661 18.8897 18.0577 19.4389 18.0577H20.0274V20.4115L19.4389 21H19.2231ZM6.59079 15.1742C6.25078 15.1742 5.96963 15.0696 5.74732 14.8604C5.53809 14.6511 5.43348 14.3177 5.43348 13.86C5.43348 13.4023 5.53809 13.0688 5.74732 12.8596C5.96963 12.6504 6.25078 12.5457 6.59079 12.5457H6.98309C7.3231 12.5457 7.59771 12.6504 7.80694 12.8596C8.02925 13.0688 8.14041 13.4023 8.14041 13.86C8.14041 14.3177 8.02925 14.6511 7.80694 14.8604C7.59771 15.0696 7.3231 15.1742 6.98309 15.1742H6.59079ZM18.1247 25.2173C17.7847 25.2173 17.5035 25.1127 17.2812 24.9035C17.072 24.6942 16.9674 24.3608 16.9674 23.9031C16.9674 23.4454 17.072 23.1119 17.2812 22.9027C17.5035 22.6935 17.7847 22.5889 18.1247 22.5889H18.517C18.857 22.5889 19.1316 22.6935 19.3408 22.9027C19.5631 23.1119 19.6743 23.4454 19.6743 23.9031C19.6743 24.3608 19.5631 24.6942 19.3408 24.9035C19.1316 25.1127 18.857 25.2173 18.517 25.2173H18.1247ZM15.0254 25.2173C14.6854 25.2173 14.4043 25.1127 14.182 24.9035C13.9727 24.6942 13.8681 24.3608 13.8681 23.9031C13.8681 23.4454 13.9727 23.1119 14.182 22.9027C14.4043 22.6935 14.6854 22.5889 15.0254 22.5889H15.4177C15.7577 22.5889 16.0323 22.6935 16.2416 22.9027C16.4639 23.1119 16.575 23.4454 16.575 23.9031C16.575 24.3608 16.4639 24.6942 16.2416 24.9035C16.0323 25.1127 15.7577 25.2173 15.4177 25.2173H15.0254ZM19.4484 18.6461L20.0369 18.0577H21.8807C22.3515 18.0577 22.6719 18.0119 22.8419 17.9204C23.0249 17.8158 23.1165 17.6392 23.1165 17.3908C23.1165 17.2208 23.0707 17.0704 22.9792 16.9396C22.8876 16.7958 22.7307 16.6323 22.5084 16.4492L20.233 14.4092V9.23074L29.6484 6.24919V8.83843L21.2138 11.4865V11.6042L26.2157 16.1746C26.6342 16.5669 27.0069 16.8873 27.3338 17.1358C27.6738 17.3711 27.9811 17.5608 28.2557 17.7046C28.5434 17.8354 28.8115 17.9269 29.06 17.9792C29.3084 18.0315 29.57 18.0577 29.8446 18.0577V20.4115L29.2561 21C28.8115 21 28.4061 20.9608 28.04 20.8823C27.6869 20.7908 27.3338 20.6338 26.9807 20.4115C26.6276 20.1762 26.255 19.8688 25.8626 19.4896C25.4834 19.0973 25.0519 18.6004 24.568 17.9988L24.0384 17.3515L23.9403 17.4104C23.9926 17.6588 24.0188 17.9204 24.0188 18.195C24.0188 18.5873 23.9599 18.9535 23.8423 19.2935C23.7246 19.6335 23.5546 19.9342 23.3323 20.1958C23.1099 20.4442 22.8419 20.6404 22.528 20.7842C22.2142 20.9281 21.8611 21 21.4688 21H19.4484V18.6461ZM29.2561 18.6461L29.8446 18.0577H31.5511C31.538 17.9792 31.5315 17.9008 31.5315 17.8223C31.5315 17.7438 31.5315 17.6654 31.5315 17.5869C31.5315 16.0046 32.4469 14.6838 34.2777 13.6246L35.533 12.8988H38.1223L39.6719 17.0573C39.8158 17.4627 39.9923 17.7308 40.2015 17.8615C40.4238 17.9923 40.7508 18.0577 41.1823 18.0577H41.7708V20.4115L41.1823 21C40.3192 21 39.6392 20.8692 39.1423 20.6077C38.6454 20.3331 38.2334 19.9081 37.9065 19.3327L37.7888 19.3523V21H35.2977C34.343 21 33.578 20.8104 33.0027 20.4312C32.4273 20.0388 32.0219 19.5485 31.7865 18.96H31.61C31.2438 20.32 30.4592 21 29.2561 21V18.6461ZM33.3165 17.3123C33.3165 17.6 33.4277 17.7961 33.65 17.9008C33.8723 18.0054 34.1404 18.0577 34.4542 18.0577H37.3377L36.3569 15.4684L34.5719 16.1746C34.1534 16.3446 33.8396 16.5211 33.6304 16.7042C33.4211 16.8742 33.3165 17.0769 33.3165 17.3123ZM41.1901 18.6461L41.7786 18.0577H42.3474C42.8182 18.0577 43.204 18.0381 43.5047 17.9988C43.8186 17.9596 44.067 17.8942 44.2501 17.8027C44.4463 17.6981 44.577 17.5738 44.6424 17.43C44.7209 17.2731 44.7601 17.0835 44.7601 16.8611C44.7601 16.665 44.7405 16.4165 44.7013 16.1158C44.6751 15.8019 44.6163 15.3965 44.5247 14.8996L44.1913 13.0754L46.3294 12.7223L46.6236 14.5465C46.689 14.8996 46.7413 15.2919 46.7805 15.7234C46.8197 16.155 46.8394 16.5342 46.8394 16.8611C46.8394 18.2865 46.4863 19.3327 45.7801 19.9996C45.087 20.6665 43.9428 21 42.3474 21H41.1901V18.6461ZM46.3097 11.1531C45.9697 11.1531 45.6886 11.0484 45.4663 10.8392C45.257 10.63 45.1524 10.2965 45.1524 9.83882C45.1524 9.38112 45.257 9.04766 45.4663 8.83843C45.6886 8.6292 45.9697 8.52458 46.3097 8.52458H46.702C47.042 8.52458 47.3167 8.6292 47.5259 8.83843C47.7482 9.04766 47.8594 9.38112 47.8594 9.83882C47.8594 10.2965 47.7482 10.63 47.5259 10.8392C47.3167 11.0484 47.042 11.1531 46.702 11.1531H46.3097ZM43.2105 11.1531C42.8705 11.1531 42.5893 11.0484 42.367 10.8392C42.1578 10.63 42.0532 10.2965 42.0532 9.83882C42.0532 9.38112 42.1578 9.04766 42.367 8.83843C42.5893 8.6292 42.8705 8.52458 43.2105 8.52458H43.6028C43.9428 8.52458 44.2174 8.6292 44.4267 8.83843C44.649 9.04766 44.7601 9.38112 44.7601 9.83882C44.7601 10.2965 44.649 10.63 44.4267 10.8392C44.2174 11.0484 43.9428 11.1531 43.6028 11.1531H43.2105Z" fill="#243A5E"/>
<rect x="73.7119" y="29.1182" width="0.619649" height="13.1675" rx="0.309825" transform="rotate(90 73.7119 29.1182)" fill="#243A5E"/>
<rect x="66.792" width="0.64731" height="29.4232" rx="0.323655" fill="#243A5E"/>
<rect x="65.3203" y="13.5049" width="0.64731" height="15.9179" rx="0.323655" fill="#243A5E"/>
<rect x="54.4932" y="14.1606" width="0.64731" height="11.4677" rx="0.323655" transform="rotate(-90.0309 54.4932 14.1606)" fill="#243A5E"/>
<rect x="55.1113" y="9.8833" width="0.64731" height="7.51166" rx="0.323655" transform="rotate(-54.511 55.1113 9.8833)" fill="#243A5E"/>
<rect x="61.5654" y="9.39502" width="0.64731" height="6.48662" rx="0.323655" transform="rotate(-57.3744 61.5654 9.39502)" fill="#243A5E"/>
<rect x="61.6885" y="7.0625" width="0.64731" height="2.51275" rx="0.323655" transform="rotate(1.01982 61.6885 7.0625)" fill="#243A5E"/>
<rect x="61.6865" y="3.03076" width="0.64731" height="2.27878" rx="0.323655" transform="rotate(1.01982 61.6865 3.03076)" fill="#243A5E"/>
<rect x="57.2656" y="5.85645" width="0.64731" height="5.62944" rx="0.323655" transform="rotate(-0.18315 57.2656 5.85645)" fill="#243A5E"/>
<rect x="62.0381" y="18.7681" width="0.64731" height="3.83128" rx="0.323655" transform="rotate(-90.8251 62.0381 18.7681)" fill="#243A5E"/>
<rect x="58.4922" y="22.0825" width="0.64731" height="5.48867" rx="0.323655" transform="rotate(-129.89 58.4922 22.0825)" fill="#243A5E"/>
<rect x="62.0508" y="24.4346" width="0.64731" height="4.7946" rx="0.323655" transform="rotate(164.154 62.0508 24.4346)" fill="#243A5E"/>
<rect x="55.8525" y="18.4473" width="0.64731" height="7.26694" rx="0.323655" transform="rotate(-129.485 55.8525 18.4473)" fill="#243A5E"/>
<path d="M57.627 3.94189C58.2561 3.94189 58.7305 4.41605 58.7305 4.95752C58.7304 5.49894 58.2561 5.97217 57.627 5.97217C56.998 5.97203 56.5235 5.49886 56.5234 4.95752C56.5234 4.41613 56.9979 3.94203 57.627 3.94189Z" stroke="#243A5E" stroke-width="0.64731"/>
<path d="M54.7725 8.06152C55.4016 8.06152 55.876 8.53568 55.876 9.07715C55.8759 9.61857 55.4016 10.0918 54.7725 10.0918C54.1435 10.0917 53.669 9.61849 53.6689 9.07715C53.6689 8.53576 54.1434 8.06166 54.7725 8.06152Z" stroke="#243A5E" stroke-width="0.64731"/>
<path d="M53.6836 12.7397C54.3127 12.7397 54.7871 13.2139 54.7871 13.7554C54.787 14.2968 54.3127 14.77 53.6836 14.77C53.0546 14.7699 52.5801 14.2967 52.5801 13.7554C52.5801 13.214 53.0546 12.7399 53.6836 12.7397Z" stroke="#243A5E" stroke-width="0.64731"/>
<path d="M54.7725 17.7417C55.4016 17.7417 55.876 18.2159 55.876 18.7573C55.8759 19.2987 55.4016 19.772 54.7725 19.772C54.1435 19.7718 53.669 19.2987 53.6689 18.7573C53.6689 18.2159 54.1434 17.7418 54.7725 17.7417Z" stroke="#243A5E" stroke-width="0.64731"/>
<path d="M57.627 21.478C58.2561 21.478 58.7305 21.9522 58.7305 22.4937C58.7304 23.0351 58.2561 23.5083 57.627 23.5083C56.998 23.5082 56.5235 23.035 56.5234 22.4937C56.5234 21.9523 56.9979 21.4782 57.627 21.478Z" stroke="#243A5E" stroke-width="0.64731"/>
<path d="M61.9814 24.1855C62.6106 24.1855 63.085 24.6597 63.085 25.2012C63.0849 25.7426 62.6106 26.2158 61.9814 26.2158C61.3525 26.2157 60.878 25.7425 60.8779 25.2012C60.8779 24.6598 61.3524 24.1857 61.9814 24.1855Z" stroke="#243A5E" stroke-width="0.64731"/>
<path d="M61.9814 1.26465C62.6106 1.26465 63.085 1.73881 63.085 2.28027C63.0849 2.82169 62.6106 3.29492 61.9814 3.29492C61.3525 3.29479 60.878 2.82162 60.8779 2.28027C60.8779 1.73888 61.3524 1.26478 61.9814 1.26465Z" stroke="#243A5E" stroke-width="0.64731"/>
<path d="M61.9814 5.23682C62.6106 5.23682 63.085 5.71097 63.085 6.25244C63.0849 6.79386 62.6106 7.26709 61.9814 7.26709C61.3525 7.26696 60.878 6.79378 60.8779 6.25244C60.8779 5.71105 61.3524 5.23695 61.9814 5.23682Z" stroke="#243A5E" stroke-width="0.64731"/>
<rect width="0.64731" height="15.9179" rx="0.323655" transform="matrix(-1 0 0 1 68.9365 13.5049)" fill="#243A5E"/>
<rect width="0.64731" height="11.4677" rx="0.323655" transform="matrix(0.000539402 -1 -1 -0.000539402 79.7637 14.1606)" fill="#243A5E"/>
<rect width="0.64731" height="7.51166" rx="0.323655" transform="matrix(-0.580546 -0.814227 -0.814227 0.580546 79.1465 9.8833)" fill="#243A5E"/>
<rect width="0.64731" height="6.48662" rx="0.323655" transform="matrix(-0.539147 -0.842211 -0.842211 0.539147 72.6924 9.39502)" fill="#243A5E"/>
<rect width="0.64731" height="2.51275" rx="0.323655" transform="matrix(-0.999842 0.0177983 0.0177983 0.999842 72.5693 7.0625)" fill="#243A5E"/>
<rect width="0.64731" height="2.27878" rx="0.323655" transform="matrix(-0.999842 0.0177983 0.0177983 0.999842 72.5703 3.03076)" fill="#243A5E"/>
<rect width="0.64731" height="5.62944" rx="0.323655" transform="matrix(-0.999995 -0.00319656 -0.00319656 0.999995 76.9922 5.85645)" fill="#243A5E"/>
<rect width="0.64731" height="3.83128" rx="0.323655" transform="matrix(0.0143997 -0.999896 -0.999896 -0.0143997 72.2197 18.7681)" fill="#243A5E"/>
<rect width="0.64731" height="5.48867" rx="0.323655" transform="matrix(0.64131 -0.767282 -0.767282 -0.64131 75.7656 22.0825)" fill="#243A5E"/>
<rect width="0.64731" height="4.84234" rx="0.323655" transform="matrix(0.961998 0.273057 0.273057 -0.961998 72.207 24.4346)" fill="#243A5E"/>
<rect width="0.64731" height="7.26694" rx="0.323655" transform="matrix(0.635878 -0.771789 -0.771789 -0.635878 78.4062 18.4473)" fill="#243A5E"/>
<path d="M76.6309 3.94189C76.0017 3.94189 75.5273 4.41605 75.5273 4.95752C75.5274 5.49894 76.0018 5.97217 76.6309 5.97217C77.2598 5.97203 77.7343 5.49886 77.7344 4.95752C77.7344 4.41613 77.2599 3.94203 76.6309 3.94189Z" stroke="#243A5E" stroke-width="0.64731"/>
<path d="M79.4844 8.06152C78.8552 8.06152 78.3809 8.53568 78.3809 9.07715C78.3809 9.61857 78.8553 10.0918 79.4844 10.0918C80.1134 10.0917 80.5878 9.61849 80.5879 9.07715C80.5879 8.53576 80.1134 8.06166 79.4844 8.06152Z" stroke="#243A5E" stroke-width="0.64731"/>
<path d="M80.5732 12.7397C79.9441 12.7397 79.4697 13.2139 79.4697 13.7554C79.4698 14.2968 79.9441 14.77 80.5732 14.77C81.2022 14.7699 81.6767 14.2967 81.6768 13.7554C81.6768 13.214 81.2023 12.7399 80.5732 12.7397Z" stroke="#243A5E" stroke-width="0.64731"/>
<path d="M79.4844 17.7417C78.8552 17.7417 78.3809 18.2159 78.3809 18.7573C78.3809 19.2987 78.8553 19.772 79.4844 19.772C80.1134 19.7718 80.5878 19.2987 80.5879 18.7573C80.5879 18.2159 80.1134 17.7418 79.4844 17.7417Z" stroke="#243A5E" stroke-width="0.64731"/>
<path d="M76.6309 21.478C76.0017 21.478 75.5273 21.9522 75.5273 22.4937C75.5274 23.0351 76.0018 23.5083 76.6309 23.5083C77.2598 23.5082 77.7343 23.035 77.7344 22.4937C77.7344 21.9523 77.2599 21.4782 76.6309 21.478Z" stroke="#243A5E" stroke-width="0.64731"/>
<path d="M72.2764 24.1855C71.6472 24.1855 71.1729 24.6597 71.1729 25.2012C71.1729 25.7426 71.6473 26.2158 72.2764 26.2158C72.9053 26.2157 73.3798 25.7425 73.3799 25.2012C73.3799 24.6598 72.9054 24.1857 72.2764 24.1855Z" stroke="#243A5E" stroke-width="0.64731"/>
<path d="M72.2764 1.26465C71.6472 1.26465 71.1729 1.73881 71.1729 2.28027C71.1729 2.82169 71.6473 3.29492 72.2764 3.29492C72.9053 3.29479 73.3798 2.82162 73.3799 2.28027C73.3799 1.73888 72.9054 1.26478 72.2764 1.26465Z" stroke="#243A5E" stroke-width="0.64731"/>
<path d="M72.2764 5.23682C71.6472 5.23682 71.1729 5.71097 71.1729 6.25244C71.1729 6.79386 71.6473 7.26709 72.2764 7.26709C72.9053 7.26696 73.3798 6.79378 73.3799 6.25244C73.3799 5.71105 72.9054 5.23695 72.2764 5.23682Z" stroke="#243A5E" stroke-width="0.64731"/>
</svg>
