<svg width="31" height="31" viewBox="0 0 31 31" fill="none" xmlns="http://www.w3.org/2000/svg">
<path fill-rule="evenodd" clip-rule="evenodd" d="M18.773 3.75739C17.7972 3.21243 16.6728 2.90186 15.4759 2.90186C14.2789 2.90186 13.1545 3.21243 12.1788 3.75739L11.465 3.04352C11.2761 2.85463 10.9698 2.85463 10.7809 3.04352C10.5921 3.2324 10.5921 3.53863 10.7809 3.72751L11.3539 4.30055C9.74297 5.53835 8.70465 7.48445 8.70465 9.67307H22.2471C22.2471 7.48445 21.2088 5.53835 19.5978 4.30055L20.1708 3.72751C20.3596 3.53863 20.3596 3.2324 20.1708 3.04352C19.9819 2.85463 19.6757 2.85463 19.4867 3.04352L18.773 3.75739ZM17.4105 6.77112C17.4105 7.30535 17.8436 7.73844 18.3778 7.73844C18.9121 7.73844 19.3451 7.30535 19.3451 6.77112C19.3451 6.23689 18.9121 5.8038 18.3778 5.8038C17.8436 5.8038 17.4105 6.23689 17.4105 6.77112ZM12.5739 7.73844C12.0397 7.73844 11.6066 7.30535 11.6066 6.77112C11.6066 6.23689 12.0397 5.8038 12.5739 5.8038C13.1082 5.8038 13.5412 6.23689 13.5412 6.77112C13.5412 7.30535 13.1082 7.73844 12.5739 7.73844Z" fill="#87C527"/>
<path d="M26.1162 12.0916C26.1162 11.2903 25.4666 10.6406 24.6652 10.6406C23.8639 10.6406 23.2143 11.2903 23.2143 12.0916V17.8955C23.2143 18.6968 23.8639 19.3465 24.6652 19.3465C25.4666 19.3465 26.1162 18.6968 26.1162 17.8955V12.0916Z" fill="#87C527"/>
<path d="M19.3451 23.2157V26.6013C19.3451 27.4027 18.6955 28.0523 17.8941 28.0523C17.0928 28.0523 16.4432 27.4027 16.4432 26.6013V23.2157H14.5085V26.6013C14.5085 27.4027 13.8589 28.0523 13.0576 28.0523C12.2562 28.0523 11.6066 27.4027 11.6066 26.6013V23.2157H10.6393C9.57079 23.2157 8.70465 22.3496 8.70465 21.2811V10.6406H22.2471V21.2811C22.2471 22.3496 21.3809 23.2157 20.3124 23.2157H19.3451Z" fill="#87C527"/>
<path d="M7.7373 12.0916C7.7373 11.2903 7.08766 10.6406 6.28633 10.6406C5.48501 10.6406 4.83536 11.2903 4.83536 12.0916V17.8955C4.83536 18.6968 5.48501 19.3465 6.28633 19.3465C7.08766 19.3465 7.7373 18.6968 7.7373 17.8955V12.0916Z" fill="#87C527"/>
</svg>
