<svg width="44" height="44" viewBox="0 0 44 44" fill="none" xmlns="http://www.w3.org/2000/svg">
<rect width="44" height="44" rx="5" fill="#F6F7F9"/>
<rect x="28.584" y="36.4067" width="0.619649" height="13.1675" rx="0.309825" transform="rotate(90 28.584 36.4067)" fill="#243A5E"/>
<rect x="21.6641" y="7.28857" width="0.64731" height="29.4232" rx="0.323655" fill="#243A5E"/>
<rect x="20.1934" y="20.7935" width="0.64731" height="15.9179" rx="0.323655" fill="#243A5E"/>
<rect x="9.36523" y="21.4492" width="0.64731" height="11.4677" rx="0.323655" transform="rotate(-90.0309 9.36523 21.4492)" fill="#243A5E"/>
<rect x="9.98438" y="17.1719" width="0.64731" height="7.51166" rx="0.323655" transform="rotate(-54.511 9.98438 17.1719)" fill="#243A5E"/>
<rect x="16.4375" y="16.6836" width="0.64731" height="6.48662" rx="0.323655" transform="rotate(-57.3744 16.4375 16.6836)" fill="#243A5E"/>
<rect x="16.5605" y="14.3511" width="0.64731" height="2.51275" rx="0.323655" transform="rotate(1.01982 16.5605 14.3511)" fill="#243A5E"/>
<rect x="16.5586" y="10.3193" width="0.64731" height="2.27878" rx="0.323655" transform="rotate(1.01982 16.5586 10.3193)" fill="#243A5E"/>
<rect x="12.1367" y="13.145" width="0.64731" height="5.62944" rx="0.323655" transform="rotate(-0.18315 12.1367 13.145)" fill="#243A5E"/>
<rect x="16.9102" y="26.0566" width="0.64731" height="3.83128" rx="0.323655" transform="rotate(-90.8251 16.9102 26.0566)" fill="#243A5E"/>
<rect x="13.3633" y="29.3711" width="0.64731" height="5.48867" rx="0.323655" transform="rotate(-129.89 13.3633 29.3711)" fill="#243A5E"/>
<rect x="16.9219" y="31.7231" width="0.64731" height="4.7946" rx="0.323655" transform="rotate(164.154 16.9219 31.7231)" fill="#243A5E"/>
<rect x="10.7246" y="25.7358" width="0.64731" height="7.26694" rx="0.323655" transform="rotate(-129.485 10.7246 25.7358)" fill="#243A5E"/>
<path d="M12.499 11.2305C13.1282 11.2305 13.6025 11.7046 13.6025 12.2461C13.6025 12.7875 13.1281 13.2607 12.499 13.2607C11.87 13.2606 11.3956 12.7874 11.3955 12.2461C11.3955 11.7047 11.87 11.2306 12.499 11.2305Z" stroke="#243A5E" stroke-width="0.64731"/>
<path d="M9.64355 15.3501C10.2727 15.3501 10.7471 15.8243 10.7471 16.3657C10.747 16.9071 10.2727 17.3804 9.64355 17.3804C9.01458 17.3802 8.54011 16.9071 8.54004 16.3657C8.54004 15.8243 9.01454 15.3502 9.64355 15.3501Z" stroke="#243A5E" stroke-width="0.64731"/>
<path d="M8.55566 20.0283C9.18482 20.0283 9.65918 20.5025 9.65918 21.0439C9.65911 21.5854 9.18477 22.0586 8.55566 22.0586C7.92669 22.0585 7.45221 21.5853 7.45215 21.0439C7.45215 20.5026 7.92664 20.0285 8.55566 20.0283Z" stroke="#243A5E" stroke-width="0.64731"/>
<path d="M9.64355 25.0303C10.2727 25.0303 10.7471 25.5044 10.7471 26.0459C10.747 26.5873 10.2727 27.0605 9.64355 27.0605C9.01458 27.0604 8.54011 26.5872 8.54004 26.0459C8.54004 25.5045 9.01454 25.0304 9.64355 25.0303Z" stroke="#243A5E" stroke-width="0.64731"/>
<path d="M12.499 28.7666C13.1282 28.7666 13.6025 29.2408 13.6025 29.7822C13.6025 30.3236 13.1281 30.7969 12.499 30.7969C11.87 30.7967 11.3956 30.3236 11.3955 29.7822C11.3955 29.2408 11.87 28.7667 12.499 28.7666Z" stroke="#243A5E" stroke-width="0.64731"/>
<path d="M16.8545 31.4741C17.4836 31.4741 17.958 31.9483 17.958 32.4897C17.9579 33.0312 17.4836 33.5044 16.8545 33.5044C16.2255 33.5043 15.751 33.0311 15.751 32.4897C15.751 31.9484 16.2255 31.4743 16.8545 31.4741Z" stroke="#243A5E" stroke-width="0.64731"/>
<path d="M16.8545 8.55322C17.4836 8.55322 17.958 9.02738 17.958 9.56885C17.9579 10.1103 17.4836 10.5835 16.8545 10.5835C16.2255 10.5834 15.751 10.1102 15.751 9.56885C15.751 9.02746 16.2255 8.55336 16.8545 8.55322Z" stroke="#243A5E" stroke-width="0.64731"/>
<path d="M16.8545 12.5254C17.4836 12.5254 17.958 12.9995 17.958 13.541C17.9579 14.0824 17.4836 14.5557 16.8545 14.5557C16.2255 14.5555 15.751 14.0824 15.751 13.541C15.751 12.9996 16.2255 12.5255 16.8545 12.5254Z" stroke="#243A5E" stroke-width="0.64731"/>
<rect width="0.64731" height="15.9179" rx="0.323655" transform="matrix(-1 0 0 1 23.8086 20.7935)" fill="#243A5E"/>
<rect width="0.64731" height="11.4677" rx="0.323655" transform="matrix(0.000539402 -1 -1 -0.000539402 34.6367 21.4492)" fill="#243A5E"/>
<rect width="0.64731" height="7.51166" rx="0.323655" transform="matrix(-0.580546 -0.814227 -0.814227 0.580546 34.0176 17.1719)" fill="#243A5E"/>
<rect width="0.64731" height="6.48662" rx="0.323655" transform="matrix(-0.539147 -0.842211 -0.842211 0.539147 27.5645 16.6836)" fill="#243A5E"/>
<rect width="0.64731" height="2.51275" rx="0.323655" transform="matrix(-0.999842 0.0177983 0.0177983 0.999842 27.4414 14.3511)" fill="#243A5E"/>
<rect width="0.64731" height="2.27878" rx="0.323655" transform="matrix(-0.999842 0.0177983 0.0177983 0.999842 27.4434 10.3193)" fill="#243A5E"/>
<rect width="0.64731" height="5.62944" rx="0.323655" transform="matrix(-0.999995 -0.00319656 -0.00319656 0.999995 31.8652 13.145)" fill="#243A5E"/>
<rect width="0.64731" height="3.83128" rx="0.323655" transform="matrix(0.0143997 -0.999896 -0.999896 -0.0143997 27.0918 26.0566)" fill="#243A5E"/>
<rect width="0.64731" height="5.48867" rx="0.323655" transform="matrix(0.64131 -0.767282 -0.767282 -0.64131 30.6387 29.3711)" fill="#243A5E"/>
<rect width="0.64731" height="4.84234" rx="0.323655" transform="matrix(0.961998 0.273057 0.273057 -0.961998 27.0781 31.7231)" fill="#243A5E"/>
<rect width="0.64731" height="7.26694" rx="0.323655" transform="matrix(0.635878 -0.771789 -0.771789 -0.635878 33.2773 25.7358)" fill="#243A5E"/>
<path d="M31.5029 11.2305C30.8738 11.2305 30.3994 11.7046 30.3994 12.2461C30.3995 12.7875 30.8738 13.2607 31.5029 13.2607C32.1319 13.2606 32.6064 12.7874 32.6064 12.2461C32.6064 11.7047 32.1319 11.2306 31.5029 11.2305Z" stroke="#243A5E" stroke-width="0.64731"/>
<path d="M34.3564 15.3501C33.7273 15.3501 33.2529 15.8243 33.2529 16.3657C33.253 16.9071 33.7273 17.3804 34.3564 17.3804C34.9854 17.3802 35.4599 16.9071 35.46 16.3657C35.46 15.8243 34.9855 15.3502 34.3564 15.3501Z" stroke="#243A5E" stroke-width="0.64731"/>
<path d="M35.4463 20.0283C34.8171 20.0283 34.3428 20.5025 34.3428 21.0439C34.3428 21.5854 34.8172 22.0586 35.4463 22.0586C36.0753 22.0585 36.5497 21.5853 36.5498 21.0439C36.5498 20.5026 36.0753 20.0285 35.4463 20.0283Z" stroke="#243A5E" stroke-width="0.64731"/>
<path d="M34.3564 25.0303C33.7273 25.0303 33.2529 25.5044 33.2529 26.0459C33.253 26.5873 33.7273 27.0605 34.3564 27.0605C34.9854 27.0604 35.4599 26.5872 35.46 26.0459C35.46 25.5045 34.9855 25.0304 34.3564 25.0303Z" stroke="#243A5E" stroke-width="0.64731"/>
<path d="M31.5029 28.7666C30.8738 28.7666 30.3994 29.2408 30.3994 29.7822C30.3995 30.3236 30.8738 30.7969 31.5029 30.7969C32.1319 30.7967 32.6064 30.3236 32.6064 29.7822C32.6064 29.2408 32.1319 28.7667 31.5029 28.7666Z" stroke="#243A5E" stroke-width="0.64731"/>
<path d="M27.1475 31.4741C26.5183 31.4741 26.0439 31.9483 26.0439 32.4897C26.044 33.0312 26.5184 33.5044 27.1475 33.5044C27.7764 33.5043 28.2509 33.0311 28.251 32.4897C28.251 31.9484 27.7765 31.4743 27.1475 31.4741Z" stroke="#243A5E" stroke-width="0.64731"/>
<path d="M27.1475 8.55322C26.5183 8.55322 26.0439 9.02738 26.0439 9.56885C26.044 10.1103 26.5184 10.5835 27.1475 10.5835C27.7764 10.5834 28.2509 10.1102 28.251 9.56885C28.251 9.02746 27.7765 8.55336 27.1475 8.55322Z" stroke="#243A5E" stroke-width="0.64731"/>
<path d="M27.1475 12.5254C26.5183 12.5254 26.0439 12.9995 26.0439 13.541C26.044 14.0824 26.5184 14.5557 27.1475 14.5557C27.7764 14.5555 28.2509 14.0824 28.251 13.541C28.251 12.9996 27.7765 12.5255 27.1475 12.5254Z" stroke="#243A5E" stroke-width="0.64731"/>
</svg>
